HIERARCHY
ROOT Hips
{
    OFFSET 0.000000 0.000000 0.000000
    CHANNELS 6 Xposition Yposition Zposition Zrotation Xrotation Yrotation
        JOINT Spine1
        {
            OFFSET -0.000000 23.269398 0.000000
            CHANNELS 3 Zrotation Xrotation Yrotation
            JOINT Neck
            {
                OFFSET -0.000000 18.032967 0.000000
                CHANNELS 3 Zrotation Xrotation Yrotation
                JOINT Head
                {
                    OFFSET -0.000000 13.091072 1.689171
                    CHANNELS 3 Zrotation Xrotation Yrotation
                    End Site
                    {
                        OFFSET -0.000000 16.891708 0.000000
                    }
                }
            }
            JOINT LeftShoulder
            {
                OFFSET 3.336773 14.146137 -0.012206
                CHANNELS 3 Zrotation Xrotation Yrotation
                JOINT LeftArm
                {
                    OFFSET 11.765518 0.000000 0.000000
                    CHANNELS 3 Zrotation Xrotation Yrotation
                    JOINT LeftForeArm
                    {
                        OFFSET 25.163450 0.000000 0.000000
                        CHANNELS 3 Zrotation Xrotation Yrotation
                        JOINT LeftHand
                        {
                            OFFSET 21.783554 0.000000 0.000000
                            CHANNELS 3 Zrotation Xrotation Yrotation
                            End Site
                            {
                                OFFSET 12.668781 0.000000 0.000000
                            }
                        }
                    }
                }
            }
            JOINT RightShoulder
            {
                OFFSET -3.409204 14.146137 -0.012206
                CHANNELS 3 Zrotation Xrotation Yrotation
                JOINT RightArm
                {
                    OFFSET -11.765518 0.000000 0.000000
                    CHANNELS 3 Zrotation Xrotation Yrotation
                    JOINT RightForeArm
                    {
                        OFFSET -25.163450 0.000000 0.000000
                        CHANNELS 3 Zrotation Xrotation Yrotation
                        JOINT RightHand
                        {
                            OFFSET -21.783554 0.000000 0.000000
                            CHANNELS 3 Zrotation Xrotation Yrotation
                            End Site
                            {
                                OFFSET -12.668781 0.000000 0.000000
                            }
                        }
                    }
                }
            }
        }
        JOINT LeftUpLeg
    {
        OFFSET 8.445854 0.000000 0.000000
        CHANNELS 3 Zrotation Xrotation Yrotation
        JOINT LeftLeg
        {
            OFFSET -0.000000 -40.674755 0.000000
            CHANNELS 3 Zrotation Xrotation Yrotation
            JOINT LeftFoot
            {
                OFFSET -0.000000 -37.111794 0.000000
                CHANNELS 3 Zrotation Xrotation Yrotation
                JOINT LeftToeBase
                {
                    OFFSET -0.000000 -5.489805 12.668781
                    CHANNELS 3 Zrotation Xrotation Yrotation
                    End Site
                    {
                        OFFSET -0.000000 0.000000 3.378341
                    }
                }
            }
        }
    }
    JOINT RightUpLeg
    {
        OFFSET -8.445854 0.000000 0.000000
        CHANNELS 3 Zrotation Xrotation Yrotation
        JOINT RightLeg
        {
            OFFSET -0.000000 -40.674755 0.000000
            CHANNELS 3 Zrotation Xrotation Yrotation
            JOINT RightFoot
            {
                OFFSET -0.000000 -37.111794 0.000000
                CHANNELS 3 Zrotation Xrotation Yrotation
                JOINT RightToeBase
                {
                    OFFSET -0.000000 -5.489805 12.668781
                    CHANNELS 3 Zrotation Xrotation Yrotation
                    End Site
                    {
                        OFFSET -0.000000 0.000000 3.378341
                    }
                }
            }
        }
    }
}
MOTION
Frames:    13
Frame Time:    0.008333
2.639307    84.410713    58.769512    1.236089    -2.648526    9.000532    1.738090    9.382586    -2.713313    2.294218    7.083582    34.029762    -30.179867    -9.920983    36.160427    -4.232893    7.721169    9.929679    -48.479004    39.074879    -30.901033    2.355512    0.975399    -19.027224    1.304719    1.300681    -6.095525    -6.010192    7.423460    -3.180042    40.907578    46.639946    46.155254    -1.127416    3.431394    21.982262    9.677032    4.277522    7.421270    4.794330    -3.030139    -19.077148    0.697528    12.438354    12.702195    -9.752894    -7.062964    13.348617    -2.159622    -1.427329    3.146527    1.096808    2.518651    -2.605790    -3.319931    2.232461    24.528854    -1.411666    1.417122    -39.504429    0.823394    -7.221315    13.817311    
2.640862    84.411049    58.781372    1.225174    -2.643732    8.964168    1.696003    9.391960    -2.685769    2.360948    7.014553    33.943657    -30.030760    -9.920881    36.083336    -4.298763    7.624083    10.003880    -48.288666    39.138519    -30.985250    2.288425    1.016535    -19.040804    1.305562    1.330831    -6.088948    -5.981145    7.551960    -3.362775    40.622276    46.639565    46.505527    -1.085247    3.473150    21.835871    9.457592    4.298397    7.458269    4.822804    -2.967444    -19.054266    0.713912    12.305080    11.869464    -9.630431    -7.142146    14.193953    -2.140302    -1.405356    3.136820    1.103678    2.518592    -2.601367    -3.317472    2.226580    24.554840    -1.409503    1.430366    -39.496918    0.841021    -7.243262    13.815711    
2.642946    84.411491    58.791508    1.216534    -2.635340    8.928024    1.625968    9.350078    -2.665748    2.449107    6.969023    33.713421    -29.812590    -9.915751    35.867836    -4.172318    7.716747    9.975662    -48.378490    39.140217    -31.066351    2.323623    1.013561    -18.989317    1.298430    1.332864    -6.110960    -5.864753    7.482882    -3.152088    40.820290    46.605404    46.043995    -1.121611    3.458654    21.806671    9.351644    4.282555    7.444365    4.812681    -3.037243    -19.023008    0.717225    12.442908    12.665440    -9.744630    -6.557303    13.322494    -2.663725    -2.101534    3.173799    1.108214    2.513083    -2.606303    -3.318691    2.223807    24.573704    -1.391780    1.417123    -39.482086    0.839238    -7.243357    13.822445    
2.645239    84.412361    58.803314    1.206937    -2.624578    8.888541    1.597557    9.316236    -2.671957    2.575123    7.006691    33.611656    -29.889105    -9.949232    35.783951    -4.156654    7.774504    9.969287    -48.147190    39.325928    -31.312580    2.280718    0.875090    -18.870754    1.290716    1.184449    -6.180589    -5.863149    7.518398    -3.107295    40.838978    46.578857    45.988583    -1.088350    3.454248    21.681221    9.212073    4.264820    7.486352    4.814499    -3.016194    -18.991398    0.712304    12.448830    12.691958    -9.727369    -7.068372    13.370214    -2.148389    -1.421979    3.124411    1.115848    2.504100    -2.602437    -3.322463    2.224231    24.610437    -1.391600    1.403053    -39.489445    0.819462    -7.217333    13.820265    
2.645180    84.412804    58.815025    1.195347    -2.618383    8.846333    1.590195    9.307792    -2.682234    2.630124    6.988368    33.531776    -29.850151    -9.964372    35.709862    -4.152307    7.805855    9.957759    -48.154961    39.337563    -31.332594    2.302673    0.854179    -18.889883    1.263332    1.169156    -6.169624    -5.858713    7.531268    -3.111602    40.802956    46.602036    45.970127    -1.092649    3.423465    21.581045    9.077666    4.225542    7.492351    4.829301    -3.025557    -18.958904    0.726205    12.447196    12.682954    -9.719378    -6.572673    13.316077    -2.654443    -2.087282    3.177553    1.126727    2.502079    -2.602552    -3.328769    2.219839    24.632900    -1.383561    1.403207    -39.467495    0.831372    -7.236712    13.832118    
2.646827    84.413612    58.826111    1.184913    -2.606077    8.801978    1.578131    9.312082    -2.697554    2.642405    6.912817    33.485317    -29.703247    -9.935364    35.669205    -4.162539    7.795856    9.967347    -48.147503    39.368156    -31.355211    3.085929    1.584060    -18.699682    0.270387    2.075777    -6.876877    -5.858494    7.515074    -3.133499    37.589592    49.235043    47.717133    -2.656883    1.357580    22.645782    9.482533    2.483923    7.162653    4.848248    -2.953938    -18.921652    0.737912    12.323692    11.933701    -9.619191    -7.166162    14.149784    -2.108973    -1.374295    3.110973    1.133679    2.487766    -2.597448    -3.328762    2.227075    24.665977    -1.399335    1.419170    -39.466969    0.851372    -7.256168    13.814828    
2.648954    84.413887    58.838581    1.176140    -2.601213    8.748733    1.565277    9.301447    -2.702785    2.682318    6.912335    33.424744    -29.667755    -9.958879    35.609600    -4.150302    7.779421    9.940617    -48.392025    39.191608    -31.150146    3.138731    1.716566    -18.812963    0.196576    2.224582    -6.846228    -5.856522    7.516616    -3.128934    37.635490    49.222286    47.637890    -2.649135    1.375695    22.523705    9.370485    2.491327    7.173078    4.858428    -2.940844    -18.874048    0.735999    12.323860    11.842513    -9.592331    -7.161914    14.242953    -2.139507    -1.410793    3.122357    1.138913    2.485848    -2.594493    -3.328719    2.223087    24.700344    -1.394467    1.425017    -39.460228    0.853042    -7.261705    13.824524    
2.652927    84.414970    58.851753    1.168303    -2.591055    8.691514    1.544225    9.280181    -2.715035    2.732044    6.915462    33.369667    -29.643887    -9.962332    35.562904    -4.143489    7.785110    9.958886    -48.392860    39.214985    -31.187254    3.152733    1.712462    -18.800331    0.158378    2.224652    -6.909734    -5.848815    7.527044    -3.123534    37.711369    49.180176    47.551243    -2.631383    1.391791    22.412230    9.305193    2.495501    7.153498    4.861885    -2.931381    -18.821442    0.744504    12.325056    11.861082    -9.600305    -7.166354    14.227324    -2.128067    -1.409938    3.089668    1.136854    2.481068    -2.584346    -3.332416    2.230980    24.728479    -1.296015    1.573389    -39.361977    1.021776    -7.390052    13.574734    
2.653887    84.415230    58.865082    1.155804    -2.584624    8.627385    1.533145    9.248237    -2.715770    2.812340    6.967303    33.303555    -29.718412    -9.978027    35.510925    -4.131165    7.828768    9.936448    -48.373692    39.231548    -31.250229    3.160384    1.673913    -18.772022    0.094354    2.190395    -6.965751    -5.843692    7.562987    -3.108361    37.750908    49.130527    47.487667    -2.592589    1.356643    22.294556    9.327691    2.450741    7.145269    4.854870    -2.964323    -18.771296    0.739410    12.449447    12.698291    -9.697426    -7.115110    13.394476    -2.124338    -1.399582    3.101368    1.148566    2.469333    -2.562662    -3.330959    2.227496    24.766176    -1.369675    1.409311    -39.448719    0.845062    -7.266504    13.867199    
2.655556    84.415565    58.879494    1.145848    -2.584312    8.568045    1.515479    9.251737    -2.735790    2.809374    6.918518    33.274197    -29.584589    -9.953870    35.483803    -4.128919    7.812179    9.970366    -48.327225    39.285641    -31.303490    2.866172    1.425515    -18.766317    0.476890    1.870320    -6.889585    -5.831037    7.541878    -3.120444    37.796795    49.123623    47.419449    -2.565975    1.349796    22.192394    9.292603    2.432897    7.130693    4.864121    -2.929055    -18.727829    0.727610    12.421761    12.647872    -9.647696    -7.865854    13.463620    -1.931602    -1.219784    2.918758    1.155141    2.473960    -2.558606    -3.331054    2.223539    24.792065    -1.376807    1.401360    -39.423763    0.853516    -7.275108    13.860986    
2.655829    84.414642    58.893837    1.129536    -2.572803    8.511442    1.498076    9.224987    -2.765512    2.851791    6.930335    33.225903    -29.571762    -9.946646    35.445820    -4.118377    7.815893    9.987903    -48.127529    39.469894    -31.528013    3.069709    1.578000    -18.614086    0.254495    2.065229    -7.049144    -5.825555    7.553316    -3.110756    41.045860    46.424706    45.613930    -0.942801    3.409386    20.881313    8.745529    4.150687    7.432034    4.896593    -2.872032    -18.680285    0.749898    12.293939    11.887039    -9.552804    -7.919036    14.229457    -1.927915    -1.214295    2.919792    1.168985    2.470514    -2.554083    -3.339883    2.220326    24.829817    -1.283244    1.565759    -39.344872    1.030503    -7.403857    13.582270    
2.657115    84.414528    58.907352    1.119427    -2.572069    8.449483    1.476812    9.208114    -2.784685    2.880915    6.957875    33.173222    -29.559568    -9.969003    35.393482    -4.109634    7.812684    9.998899    -48.129005    39.484909    -31.538551    2.354846    0.880046    -18.866392    1.212581    1.205106    -6.242720    -5.804422    7.559475    -3.096938    41.088337    46.387753    45.547180    -0.929772    3.413296    20.769552    8.793015    4.154942    7.439264    4.875080    -2.947361    -18.627892    0.766319    12.522024    12.686865    -9.711083    -7.133788    13.414599    -2.170702    -1.463849    3.098974    1.177984    2.469206    -2.544360    -3.337353    2.212911    24.861832    -1.360993    1.410195    -39.405895    0.864989    -7.285299    13.848306    
2.657704    84.415215    58.921886    1.106839    -2.568554    8.393088    1.461461    9.186400    -2.809883    2.917331    6.963049    33.128578    -29.543795    -9.940777    35.363338    -4.107235    7.804158    10.005265    -48.148827    39.495293    -31.536713    2.377724    0.913518    -18.861719    1.274018    1.238478    -6.288900    -5.790108    7.562128    -3.096529    41.127060    46.369858    45.487873    -0.940279    3.406550    20.663111    8.880071    4.152722    7.411666    4.886981    -2.931812    -18.598600    0.767302    12.524071    12.709085    -9.705915    -7.167822    13.413827    -2.134413    -1.417681    3.091680    1.191440    2.476496    -2.541382    -3.351300    2.204137    24.907162    -1.263891    1.559557    -39.334404    1.042225    -7.422641    13.593111    
